<?xml version="1.0" encoding="utf-8"?>
<!-- Generator: Adobe Illustrator 16.0.4, SVG Export Plug-In . SVG Version: 6.00 Build 0)  -->
<!DOCTYPE svg PUBLIC "-//W3C//DTD SVG 1.1//EN" "http://www.w3.org/Graphics/SVG/1.1/DTD/svg11.dtd">
<svg version="1.1" id="Layer_1" xmlns="http://www.w3.org/2000/svg" xmlns:xlink="http://www.w3.org/1999/xlink" x="0px" y="0px"
	 width="441.779px" height="105.316px" viewBox="0 0 441.779 105.316" enable-background="new 0 0 441.779 105.316"
	 xml:space="preserve">
<g>
	<path d="M218.88,24.071c-8.248,0-14.334,3.368-18.985,9.002v-7.787h-17.553v80.031h17.553V77.717
		c3.748,4.104,8.664,6.701,14.952,6.701c14.138,0,22.548-10.137,22.548-31.771C237.396,38.36,233.13,24.071,218.88,24.071
		 M209.01,72.334c-3.017,0-6.493-2.039-9.115-5.555v-24.03c3.261-5.071,7.521-7.319,10.818-7.319c8.155,0,8.207,11.125,8.207,17.219
		C218.92,61.301,218.838,72.334,209.01,72.334"/>
	<path d="M300.299,70.444c0-3.199,0.093-27.976,0.093-29.895c0-10.453-3.479-16.479-15.729-16.479
		c-8.249,0-14.338,3.369-18.986,9.003V1.552h-17.552v81.687h17.552V42.75c3.26-5.072,7.521-7.322,10.818-7.322
		c5.182,0,6.831,3.872,6.831,10.061v23.767c0,8.197,3.163,15.166,14.528,15.166c3.479,0,8.062-2,9.271-3.78v-5.691
		C303.423,76.18,300.299,74.483,300.299,70.444"/>
	<path d="M167.296,70.444c0-3.197,0.091-29.587,0.091-31.508c0-12.602-10.798-14.864-20.916-14.864
		c-13.61,0-21.931,5.463-29.456,13.766l8.708,8.3c6.726-6.503,13.631-9.903,19.205-10.11c3.719-0.14,5.394,2.21,5.394,4.157
		c0,10.741-32.819,8.561-32.819,28.978c0,8.959,7.741,15.26,16.944,15.26c7.881,0,12.834-2.078,17.654-6.436
		c1.98,3.854,5.846,6.436,12.75,6.436c3.479,0,8.059-2,9.271-3.78V74.95C170.419,76.18,167.296,74.483,167.296,70.444
		 M139.18,72.955c-4.03-1.051-6.442-5.863-2.646-10.127c2.189-2.457,8.445-5.504,13.787-9.451V69.19
		C147.128,72.518,142.741,73.885,139.18,72.955"/>
	<path d="M367.704,69.483c-2.93-2.523-2.529-9.254-2.529-11.564V37.825h16.194V25.286h-16.194V0.001h-17.554v62.214
		c0,14.9,7.346,22.205,19.169,22.205c7.557,0,12.311-3.098,17.827-7.94l-4.937-8.418C377.765,69.614,370.817,72.164,367.704,69.483"
		/>
	<rect x="315.744" y="25.286" width="17.553" height="57.953"/>
	<rect x="315.744" y="1.552" width="17.553" height="16.051"/>
	<path d="M414.219,24.071c-17.34,0-27.579,13.231-27.579,30.173c0,16.945,9.534,30.176,29.102,30.176
		c11.834,0,18.56-3.248,25.231-11.108l-8.065-7.689c-3.07,2.695-6.89,6.471-15.355,6.471c-7.222,0-11.872-5.03-12.993-13.604h34.893
		h2.131c0.062-0.574,0.107-1.152,0.146-1.736c0.05-0.826,0.073-1.658,0.073-2.502C441.796,37.302,431.557,24.071,414.219,24.071
		 M414.219,36.069c5.222,0,8.31,4.245,9.438,11.338h-18.874C405.91,40.314,408.997,36.069,414.219,36.069"/>
	<path d="M96.397,35.423V25.286H78.845v57.953h17.553V48.41c2.406-6.17,7.364-9.062,15.768-8.257V24.071
		C104.798,24.071,99.512,28.771,96.397,35.423"/>
	<path d="M35.208,13.701c7.192,0,11.701,4.814,13.468,17.064l16.638-2.927C64.528,13.834,56.417,0,34.918,0
		C11.561,0-0.02,18.654-0.02,42.537c0,23.885,9.599,42.54,35.228,42.54c7.055,0,14.387-2.779,19.533-8.811l4.16,6.979l5.926-0.006
		V54.903v-13.67H48.981H31.977v13.67h17.005v10.926c-3.389,4.367-8.643,5.547-13.895,5.547c-10.91,0-16.517-12.645-16.517-28.837
		C18.57,26.344,23.873,13.701,35.208,13.701"/>
</g>
</svg>
